# This file uses centimeters as units for non-parametric coordinates.

mtllib pasto.mtl
g default
v -100.000000 0.000000 75.000000
v -80.000001 0.000000 75.000000
v -60.000002 0.000000 75.000000
v -39.999998 0.000000 75.000000
v -19.999999 0.000000 75.000000
v 0.000000 0.000000 75.000000
v 20.000005 0.000000 75.000000
v 39.999998 0.000000 75.000000
v 60.000002 0.000000 75.000000
v 80.000007 0.000000 75.000000
v 100.000000 0.000000 75.000000
v -100.000000 0.000000 60.000001
v -80.000001 0.000000 60.000001
v -60.000002 0.000000 60.000001
v -39.999998 0.000000 60.000001
v -19.999999 0.000000 60.000001
v 0.000000 0.000000 60.000001
v 20.000005 0.000000 60.000001
v 39.999998 0.000000 60.000001
v 60.000002 0.000000 60.000001
v 80.000007 0.000000 60.000001
v 100.000000 0.000000 60.000001
v -100.000000 0.000000 45.000002
v -80.000001 0.000000 45.000002
v -60.000002 0.000000 45.000002
v -39.999998 0.000000 45.000002
v -19.999999 0.000000 45.000002
v 0.000000 0.000000 45.000002
v 20.000005 0.000000 45.000002
v 39.999998 0.000000 45.000002
v 60.000002 0.000000 45.000002
v 80.000007 0.000000 45.000002
v 100.000000 0.000000 45.000002
v -100.000000 0.000000 29.999998
v -80.000001 0.000000 29.999998
v -60.000002 0.000000 29.999998
v -39.999998 0.000000 29.999998
v -19.999999 0.000000 29.999998
v 0.000000 0.000000 29.999998
v 20.000005 0.000000 29.999998
v 39.999998 0.000000 29.999998
v 60.000002 0.000000 29.999998
v 80.000007 0.000000 29.999998
v 100.000000 0.000000 29.999998
v -100.000000 0.000000 14.999999
v -80.000001 0.000000 14.999999
v -60.000002 0.000000 14.999999
v -39.999998 0.000000 14.999999
v -19.999999 0.000000 14.999999
v 0.000000 0.000000 14.999999
v 20.000005 0.000000 14.999999
v 39.999998 0.000000 14.999999
v 60.000002 0.000000 14.999999
v 80.000007 0.000000 14.999999
v 100.000000 0.000000 14.999999
v -100.000000 0.000000 0.000000
v -80.000001 0.000000 0.000000
v -60.000002 0.000000 0.000000
v -39.999998 0.000000 0.000000
v -19.999999 0.000000 0.000000
v 0.000000 0.000000 0.000000
v 20.000005 0.000000 0.000000
v 39.999998 0.000000 0.000000
v 60.000002 0.000000 0.000000
v 80.000007 0.000000 0.000000
v 100.000000 0.000000 0.000000
v -100.000000 0.000000 -15.000004
v -80.000001 0.000000 -15.000004
v -60.000002 0.000000 -15.000004
v -39.999998 0.000000 -15.000004
v -19.999999 0.000000 -15.000004
v 0.000000 0.000000 -15.000004
v 20.000005 0.000000 -15.000004
v 39.999998 0.000000 -15.000004
v 60.000002 0.000000 -15.000004
v 80.000007 0.000000 -15.000004
v 100.000000 0.000000 -15.000004
v -100.000000 0.000000 -29.999998
v -80.000001 0.000000 -29.999998
v -60.000002 0.000000 -29.999998
v -39.999998 0.000000 -29.999998
v -19.999999 0.000000 -29.999998
v 0.000000 0.000000 -29.999998
v 20.000005 0.000000 -29.999998
v 39.999998 0.000000 -29.999998
v 60.000002 0.000000 -29.999998
v 80.000007 0.000000 -29.999998
v 100.000000 0.000000 -29.999998
v -100.000000 0.000000 -45.000002
v -80.000001 0.000000 -45.000002
v -60.000002 0.000000 -45.000002
v -39.999998 0.000000 -45.000002
v -19.999999 0.000000 -45.000002
v 0.000000 0.000000 -45.000002
v 20.000005 0.000000 -45.000002
v 39.999998 0.000000 -45.000002
v 60.000002 0.000000 -45.000002
v 80.000007 0.000000 -45.000002
v 100.000000 0.000000 -45.000002
v -100.000000 0.000000 -60.000005
v -80.000001 0.000000 -60.000005
v -60.000002 0.000000 -60.000005
v -39.999998 0.000000 -60.000005
v -19.999999 0.000000 -60.000005
v 0.000000 0.000000 -60.000005
v 20.000005 0.000000 -60.000005
v 39.999998 0.000000 -60.000005
v 60.000002 0.000000 -60.000005
v 80.000007 0.000000 -60.000005
v 100.000000 0.000000 -60.000005
v -100.000000 0.000000 -75.000000
v -80.000001 0.000000 -75.000000
v -60.000002 0.000000 -75.000000
v -39.999998 0.000000 -75.000000
v -19.999999 0.000000 -75.000000
v 0.000000 0.000000 -75.000000
v 20.000005 0.000000 -75.000000
v 39.999998 0.000000 -75.000000
v 60.000002 0.000000 -75.000000
v 80.000007 0.000000 -75.000000
v 100.000000 0.000000 -75.000000
vt 0.000000 0.000000
vt 1.000000 0.000000
vt 1.000000 0.000000
vt 1.000000 0.000000
vt 1.000000 0.000000
vt 1.000000 0.000000
vt 1.000000 0.000000
vt 1.000000 0.000000
vt 1.000000 0.000000
vt 1.000000 0.000000
vt 1.000000 0.000000
vt 0.000000 0.000000
vt 0.000000 0.000000
vt 0.000000 0.000000
vt 0.000000 0.000000
vt 0.000000 0.000000
vt 0.000000 0.000000
vt 0.000000 0.000000
vt 0.000000 0.000000
vt 0.000000 0.000000
vt 0.000000 0.000000
vt 1.000000 1.000000
vt 0.000000 0.000000
vt 0.000000 0.000000
vt 0.000000 0.000000
vt 0.000000 0.000000
vt 0.000000 0.000000
vt 0.000000 0.000000
vt 0.000000 0.000000
vt 0.000000 0.000000
vt 0.000000 0.000000
vt 0.000000 0.000000
vt 1.000000 1.000000
vt 0.000000 0.000000
vt 0.000000 0.000000
vt 0.000000 0.000000
vt 0.000000 0.000000
vt 0.000000 0.000000
vt 0.000000 0.000000
vt 0.000000 0.000000
vt 0.000000 0.000000
vt 0.000000 0.000000
vt 0.000000 0.000000
vt 1.000000 1.000000
vt 0.000000 0.000000
vt 0.000000 0.000000
vt 0.000000 0.000000
vt 0.000000 0.000000
vt 0.000000 0.000000
vt 0.000000 0.000000
vt 0.000000 0.000000
vt 0.000000 0.000000
vt 0.000000 0.000000
vt 0.000000 0.000000
vt 1.000000 1.000000
vt 0.000000 0.000000
vt 0.000000 0.000000
vt 0.000000 0.000000
vt 0.000000 0.000000
vt 0.000000 0.000000
vt 0.000000 0.000000
vt 0.000000 0.000000
vt 0.000000 0.000000
vt 0.000000 0.000000
vt 0.000000 0.000000
vt 1.000000 1.000000
vt 0.000000 0.000000
vt 0.000000 0.000000
vt 0.000000 0.000000
vt 0.000000 0.000000
vt 0.000000 0.000000
vt 0.000000 0.000000
vt 0.000000 0.000000
vt 0.000000 0.000000
vt 0.000000 0.000000
vt 0.000000 0.000000
vt 1.000000 1.000000
vt 0.000000 0.000000
vt 0.000000 0.000000
vt 0.000000 0.000000
vt 0.000000 0.000000
vt 0.000000 0.000000
vt 0.000000 0.000000
vt 0.000000 0.000000
vt 0.000000 0.000000
vt 0.000000 0.000000
vt 0.000000 0.000000
vt 1.000000 1.000000
vt 0.000000 0.000000
vt 0.000000 0.000000
vt 0.000000 0.000000
vt 0.000000 0.000000
vt 0.000000 0.000000
vt 0.000000 0.000000
vt 0.000000 0.000000
vt 0.000000 0.000000
vt 0.000000 0.000000
vt 0.000000 0.000000
vt 1.000000 1.000000
vt 0.000000 0.000000
vt 0.000000 0.000000
vt 0.000000 0.000000
vt 0.000000 0.000000
vt 0.000000 0.000000
vt 0.000000 0.000000
vt 0.000000 0.000000
vt 0.000000 0.000000
vt 0.000000 0.000000
vt 0.000000 0.000000
vt 1.000000 1.000000
vt 0.000000 1.000000
vt 0.000000 1.000000
vt 0.000000 1.000000
vt 0.000000 1.000000
vt 0.000000 1.000000
vt 0.000000 1.000000
vt 0.000000 1.000000
vt 0.000000 1.000000
vt 0.000000 1.000000
vt 0.000000 1.000000
vt 1.000000 1.000000
vt 0.000000 1.000000
vt 1.000000 1.000000
vt 1.000000 0.000000
vt 0.000000 1.000000
vt 1.000000 1.000000
vt 0.000000 1.000000
vt 1.000000 1.000000
vt 0.000000 1.000000
vt 1.000000 1.000000
vt 0.000000 1.000000
vt 1.000000 0.000000
vt 0.000000 1.000000
vt 1.000000 1.000000
vt 1.000000 0.000000
vt 0.000000 1.000000
vt 1.000000 1.000000
vt 1.000000 0.000000
vt 0.000000 1.000000
vt 1.000000 1.000000
vt 1.000000 0.000000
vt 0.000000 1.000000
vt 1.000000 1.000000
vt 1.000000 0.000000
vt 0.000000 1.000000
vt 1.000000 1.000000
vt 1.000000 0.000000
vt 0.000000 1.000000
vt 1.000000 1.000000
vt 1.000000 0.000000
vt 0.000000 1.000000
vt 1.000000 1.000000
vt 1.000000 0.000000
vt 0.000000 1.000000
vt 1.000000 1.000000
vt 1.000000 0.000000
vt 0.000000 1.000000
vt 1.000000 1.000000
vt 1.000000 0.000000
vt 0.000000 1.000000
vt 1.000000 1.000000
vt 1.000000 0.000000
vt 0.000000 1.000000
vt 1.000000 1.000000
vt 1.000000 0.000000
vt 0.000000 1.000000
vt 1.000000 1.000000
vt 1.000000 0.000000
vt 0.000000 1.000000
vt 1.000000 1.000000
vt 1.000000 0.000000
vt 0.000000 1.000000
vt 1.000000 1.000000
vt 1.000000 0.000000
vt 0.000000 1.000000
vt 1.000000 1.000000
vt 1.000000 0.000000
vt 0.000000 1.000000
vt 1.000000 1.000000
vt 1.000000 0.000000
vt 0.000000 1.000000
vt 1.000000 1.000000
vt 1.000000 0.000000
vt 0.000000 1.000000
vt 1.000000 1.000000
vt 1.000000 0.000000
vt 0.000000 1.000000
vt 1.000000 1.000000
vt 1.000000 0.000000
vt 0.000000 1.000000
vt 1.000000 1.000000
vt 0.000000 0.000000
vt 0.000000 0.000000
vt 0.000000 0.000000
vt 0.000000 0.000000
vt 0.000000 0.000000
vt 0.000000 1.000000
vt 1.000000 1.000000
vt 1.000000 1.000000
vt 0.000000 1.000000
vt 1.000000 1.000000
vt 0.000000 1.000000
vt 1.000000 1.000000
vt 0.000000 1.000000
vt 1.000000 1.000000
vt 0.000000 1.000000
vt 1.000000 0.000000
vt 0.000000 1.000000
vt 1.000000 1.000000
vt 1.000000 0.000000
vt 0.000000 1.000000
vt 1.000000 1.000000
vt 1.000000 0.000000
vt 0.000000 1.000000
vt 1.000000 1.000000
vt 1.000000 0.000000
vt 0.000000 1.000000
vt 1.000000 1.000000
vt 1.000000 0.000000
vt 0.000000 1.000000
vt 1.000000 0.000000
vt 0.000000 1.000000
vt 1.000000 1.000000
vt 1.000000 0.000000
vt 0.000000 1.000000
vt 1.000000 1.000000
vt 1.000000 0.000000
vt 0.000000 1.000000
vt 1.000000 1.000000
vt 1.000000 0.000000
vt 0.000000 1.000000
vt 1.000000 1.000000
vt 1.000000 0.000000
vt 0.000000 1.000000
vt 1.000000 0.000000
vt 0.000000 1.000000
vt 1.000000 1.000000
vt 1.000000 0.000000
vt 0.000000 1.000000
vt 1.000000 1.000000
vt 1.000000 0.000000
vt 0.000000 1.000000
vt 1.000000 1.000000
vt 1.000000 0.000000
vt 0.000000 1.000000
vt 1.000000 1.000000
vt 1.000000 0.000000
vt 0.000000 1.000000
vt 1.000000 0.000000
vt 0.000000 1.000000
vt 1.000000 1.000000
vt 1.000000 0.000000
vt 0.000000 1.000000
vt 1.000000 1.000000
vt 1.000000 0.000000
vt 0.000000 1.000000
vt 1.000000 1.000000
vt 1.000000 0.000000
vt 0.000000 1.000000
vt 1.000000 1.000000
vt 1.000000 0.000000
vt 0.000000 1.000000
vt 0.000000 0.000000
vt 0.000000 0.000000
vt 0.000000 0.000000
vt 0.000000 0.000000
vt 1.000000 1.000000
vt 1.000000 1.000000
vt 1.000000 1.000000
vt 1.000000 1.000000
vt 1.000000 1.000000
vt 1.000000 1.000000
vt 1.000000 0.000000
vt 0.000000 1.000000
vt 1.000000 1.000000
vt 1.000000 0.000000
vt 0.000000 1.000000
vt 1.000000 1.000000
vt 1.000000 0.000000
vt 0.000000 1.000000
vt 1.000000 1.000000
vt 1.000000 0.000000
vt 0.000000 1.000000
vt 1.000000 1.000000
vt 1.000000 0.000000
vt 0.000000 1.000000
vt 1.000000 1.000000
vt 1.000000 0.000000
vt 0.000000 1.000000
vt 1.000000 1.000000
vt 1.000000 0.000000
vt 0.000000 1.000000
vt 1.000000 1.000000
vt 1.000000 0.000000
vt 0.000000 1.000000
vt 1.000000 1.000000
vt 1.000000 0.000000
vt 0.000000 1.000000
vt 1.000000 1.000000
vt 1.000000 0.000000
vt 0.000000 1.000000
vt 1.000000 1.000000
vt 1.000000 0.000000
vt 0.000000 1.000000
vt 1.000000 1.000000
vt 1.000000 0.000000
vt 0.000000 1.000000
vt 1.000000 1.000000
vt 1.000000 0.000000
vt 0.000000 1.000000
vt 1.000000 1.000000
vt 1.000000 0.000000
vt 0.000000 1.000000
vt 1.000000 1.000000
vt 1.000000 0.000000
vt 0.000000 1.000000
vt 1.000000 1.000000
vt 1.000000 0.000000
vt 0.000000 1.000000
vt 1.000000 1.000000
vt 1.000000 0.000000
vt 0.000000 1.000000
vt 1.000000 1.000000
vt 1.000000 0.000000
vt 0.000000 1.000000
vt 1.000000 1.000000
vt 1.000000 0.000000
vt 0.000000 1.000000
vt 1.000000 1.000000
vt 1.000000 0.000000
vt 0.000000 1.000000
vt 1.000000 0.000000
vt 1.000000 0.000000
vt 1.000000 0.000000
vt 1.000000 0.000000
vt 1.000000 0.000000
vt 1.000000 1.000000
vt 1.000000 1.000000
vt 1.000000 1.000000
vt 1.000000 1.000000
vt 1.000000 0.000000
vt 0.000000 1.000000
vt 1.000000 1.000000
vt 1.000000 0.000000
vt 0.000000 1.000000
vt 1.000000 1.000000
vt 1.000000 0.000000
vt 0.000000 1.000000
vt 1.000000 1.000000
vt 1.000000 0.000000
vt 0.000000 1.000000
vt 1.000000 1.000000
vt 1.000000 0.000000
vt 0.000000 1.000000
vt 1.000000 0.000000
vt 0.000000 1.000000
vt 1.000000 1.000000
vt 1.000000 0.000000
vt 0.000000 1.000000
vt 1.000000 1.000000
vt 1.000000 0.000000
vt 0.000000 1.000000
vt 1.000000 1.000000
vt 1.000000 0.000000
vt 0.000000 1.000000
vt 1.000000 1.000000
vt 1.000000 0.000000
vt 0.000000 1.000000
vt 1.000000 0.000000
vt 0.000000 1.000000
vt 1.000000 1.000000
vt 1.000000 0.000000
vt 0.000000 1.000000
vt 1.000000 1.000000
vt 1.000000 0.000000
vt 0.000000 1.000000
vt 1.000000 1.000000
vt 1.000000 0.000000
vt 0.000000 1.000000
vt 1.000000 1.000000
vt 1.000000 0.000000
vt 0.000000 1.000000
vt 1.000000 0.000000
vt 0.000000 1.000000
vt 1.000000 1.000000
vt 1.000000 0.000000
vt 0.000000 1.000000
vt 1.000000 1.000000
vt 1.000000 0.000000
vt 0.000000 1.000000
vt 1.000000 1.000000
vt 1.000000 0.000000
vt 0.000000 1.000000
vt 1.000000 1.000000
vt 1.000000 0.000000
vt 0.000000 1.000000
vt 1.000000 0.000000
vt 1.000000 0.000000
vt 1.000000 0.000000
vt 1.000000 0.000000
vn 0.000000 1.000000 0.000000
vn 0.000000 1.000000 0.000000
vn 0.000000 1.000000 0.000000
vn 0.000000 1.000000 0.000000
vn 0.000000 1.000000 0.000000
vn 0.000000 1.000000 0.000000
vn 0.000000 1.000000 0.000000
vn 0.000000 1.000000 0.000000
vn 0.000000 1.000000 0.000000
vn 0.000000 1.000000 0.000000
vn 0.000000 1.000000 0.000000
vn 0.000000 1.000000 0.000000
vn 0.000000 1.000000 0.000000
vn 0.000000 1.000000 0.000000
vn 0.000000 1.000000 0.000000
vn 0.000000 1.000000 0.000000
vn 0.000000 1.000000 0.000000
vn 0.000000 1.000000 0.000000
vn 0.000000 1.000000 0.000000
vn 0.000000 1.000000 0.000000
vn 0.000000 1.000000 0.000000
vn 0.000000 1.000000 0.000000
vn 0.000000 1.000000 0.000000
vn 0.000000 1.000000 0.000000
vn 0.000000 1.000000 0.000000
vn 0.000000 1.000000 0.000000
vn 0.000000 1.000000 0.000000
vn 0.000000 1.000000 0.000000
vn 0.000000 1.000000 0.000000
vn 0.000000 1.000000 0.000000
vn 0.000000 1.000000 0.000000
vn 0.000000 1.000000 0.000000
vn 0.000000 1.000000 0.000000
vn 0.000000 1.000000 0.000000
vn 0.000000 1.000000 0.000000
vn 0.000000 1.000000 0.000000
vn 0.000000 1.000000 0.000000
vn 0.000000 1.000000 0.000000
vn 0.000000 1.000000 0.000000
vn 0.000000 1.000000 0.000000
vn 0.000000 1.000000 0.000000
vn 0.000000 1.000000 0.000000
vn 0.000000 1.000000 0.000000
vn 0.000000 1.000000 0.000000
vn 0.000000 1.000000 0.000000
vn 0.000000 1.000000 0.000000
vn 0.000000 1.000000 0.000000
vn 0.000000 1.000000 0.000000
vn 0.000000 1.000000 0.000000
vn 0.000000 1.000000 0.000000
vn 0.000000 1.000000 0.000000
vn 0.000000 1.000000 0.000000
vn 0.000000 1.000000 0.000000
vn 0.000000 1.000000 0.000000
vn 0.000000 1.000000 0.000000
vn 0.000000 1.000000 0.000000
vn 0.000000 1.000000 0.000000
vn 0.000000 1.000000 0.000000
vn 0.000000 1.000000 0.000000
vn 0.000000 1.000000 0.000000
vn 0.000000 1.000000 0.000000
vn 0.000000 1.000000 0.000000
vn 0.000000 1.000000 0.000000
vn 0.000000 1.000000 0.000000
vn 0.000000 1.000000 0.000000
vn 0.000000 1.000000 0.000000
vn 0.000000 1.000000 0.000000
vn 0.000000 1.000000 0.000000
vn 0.000000 1.000000 0.000000
vn 0.000000 1.000000 0.000000
vn 0.000000 1.000000 0.000000
vn 0.000000 1.000000 0.000000
vn 0.000000 1.000000 0.000000
vn 0.000000 1.000000 0.000000
vn 0.000000 1.000000 0.000000
vn 0.000000 1.000000 0.000000
vn 0.000000 1.000000 0.000000
vn 0.000000 1.000000 0.000000
vn 0.000000 1.000000 0.000000
vn 0.000000 1.000000 0.000000
vn 0.000000 1.000000 0.000000
vn 0.000000 1.000000 0.000000
vn 0.000000 1.000000 0.000000
vn 0.000000 1.000000 0.000000
vn 0.000000 1.000000 0.000000
vn 0.000000 1.000000 0.000000
vn 0.000000 1.000000 0.000000
vn 0.000000 1.000000 0.000000
vn 0.000000 1.000000 0.000000
vn 0.000000 1.000000 0.000000
vn 0.000000 1.000000 0.000000
vn 0.000000 1.000000 0.000000
vn 0.000000 1.000000 0.000000
vn 0.000000 1.000000 0.000000
vn 0.000000 1.000000 0.000000
vn 0.000000 1.000000 0.000000
vn 0.000000 1.000000 0.000000
vn 0.000000 1.000000 0.000000
vn 0.000000 1.000000 0.000000
vn 0.000000 1.000000 0.000000
vn 0.000000 1.000000 0.000000
vn 0.000000 1.000000 0.000000
vn 0.000000 1.000000 0.000000
vn 0.000000 1.000000 0.000000
vn 0.000000 1.000000 0.000000
vn 0.000000 1.000000 0.000000
vn 0.000000 1.000000 0.000000
vn 0.000000 1.000000 0.000000
vn 0.000000 1.000000 0.000000
vn 0.000000 1.000000 0.000000
vn 0.000000 1.000000 0.000000
vn 0.000000 1.000000 0.000000
vn 0.000000 1.000000 0.000000
vn 0.000000 1.000000 0.000000
vn 0.000000 1.000000 0.000000
vn 0.000000 1.000000 0.000000
vn 0.000000 1.000000 0.000000
vn 0.000000 1.000000 0.000000
vn 0.000000 1.000000 0.000000
vn 0.000000 1.000000 0.000000
vn 0.000000 1.000000 0.000000
s 1
g pPlane1
usemtl lambert4SG
f 1/1/1 2/2/2 13/260/3 12/262/4
f 2/266/2 3/3/5 14/257/6 13/259/3
f 3/265/5 4/4/7 15/254/8 14/256/6
f 4/264/7 5/5/9 16/251/10 15/253/8
f 5/263/9 6/6/11 17/191/12 16/250/10
usemtl lambert3SG
f 6/196/11 7/7/13 18/188/14 17/190/12
f 7/195/13 8/8/15 19/185/16 18/187/14
f 8/194/15 9/9/17 20/182/18 19/184/16
f 9/193/17 10/10/19 21/179/20 20/181/18
f 10/192/19 11/11/21 22/22/22 21/178/20
usemtl lambert4SG
f 12/12/4 13/261/3 24/246/23 23/248/24
f 13/13/3 14/258/6 25/243/25 24/245/23
f 14/14/6 15/255/8 26/240/26 25/242/25
f 15/15/8 16/252/10 27/237/27 26/239/26
f 16/16/10 17/249/12 28/176/28 27/236/27
usemtl lambert3SG
f 17/17/12 18/189/14 29/173/29 28/175/28
f 18/18/14 19/186/16 30/170/30 29/172/29
f 19/19/16 20/183/18 31/167/31 30/169/30
f 20/20/18 21/180/20 32/164/32 31/166/31
f 21/21/20 22/177/22 33/33/33 32/163/32
usemtl lambert4SG
f 23/23/24 24/247/23 35/232/34 34/234/35
f 24/24/23 25/244/25 36/229/36 35/231/34
f 25/25/25 26/241/26 37/226/37 36/228/36
f 26/26/26 27/238/27 38/223/38 37/225/37
f 27/27/27 28/235/28 39/161/39 38/222/38
usemtl lambert3SG
f 28/28/28 29/174/29 40/158/40 39/160/39
f 29/29/29 30/171/30 41/155/41 40/157/40
f 30/30/30 31/168/31 42/152/42 41/154/41
f 31/31/31 32/165/32 43/149/43 42/151/42
f 32/32/32 33/162/33 44/44/44 43/148/43
usemtl lambert4SG
f 34/34/35 35/233/34 46/218/45 45/220/46
f 35/35/34 36/230/36 47/215/47 46/217/45
f 36/36/36 37/227/37 48/212/48 47/214/47
f 37/37/37 38/224/38 49/209/49 48/211/48
f 38/38/38 39/221/39 50/146/50 49/208/49
usemtl lambert3SG
f 39/39/39 40/159/40 51/143/51 50/145/50
f 40/40/40 41/156/41 52/140/52 51/142/51
f 41/41/41 42/153/42 53/137/53 52/139/52
f 42/42/42 43/150/43 54/134/54 53/136/53
f 43/43/43 44/147/44 55/55/55 54/133/54
usemtl lambert4SG
f 45/45/46 46/219/45 57/205/56 56/206/57
f 46/46/45 47/216/47 58/203/58 57/204/56
f 47/47/47 48/213/48 59/201/59 58/202/58
f 48/48/48 49/210/49 60/198/60 59/200/59
f 49/49/49 50/207/50 61/199/61 60/197/60
usemtl lambert3SG
f 50/50/50 51/144/51 62/130/62 61/131/61
f 51/51/51 52/141/52 63/128/63 62/129/62
f 52/52/52 53/138/53 64/126/64 63/127/63
f 53/53/53 54/135/54 65/123/65 64/125/64
f 54/54/54 55/132/55 66/66/66 65/122/65
usemtl lambert6SG
f 56/56/57 57/336/56 68/329/67 67/331/68
f 57/57/56 58/335/58 69/326/69 68/328/67
f 58/58/58 59/334/59 70/323/70 69/325/69
f 59/59/59 60/333/60 71/320/71 70/322/70
f 60/60/60 61/332/61 72/317/72 71/319/71
usemtl lambert5SG
f 61/61/61 62/400/62 73/394/73 72/396/72
f 62/62/62 63/399/63 74/391/74 73/393/73
f 63/63/63 64/398/64 75/388/75 74/390/74
f 64/64/64 65/397/65 76/385/76 75/387/75
f 65/65/65 66/124/66 77/77/77 76/384/76
usemtl lambert6SG
f 67/67/68 68/330/67 79/314/78 78/316/79
f 68/68/67 69/327/69 80/311/80 79/313/78
f 69/69/69 70/324/70 81/308/81 80/310/80
f 70/70/70 71/321/71 82/305/82 81/307/81
f 71/71/71 72/318/72 83/302/83 82/304/82
usemtl lambert5SG
f 72/72/72 73/395/73 84/380/84 83/382/83
f 73/73/73 74/392/74 85/377/85 84/379/84
f 74/74/74 75/389/75 86/374/86 85/376/85
f 75/75/75 76/386/76 87/371/87 86/373/86
f 76/76/76 77/383/77 88/88/88 87/370/87
usemtl lambert6SG
f 78/78/79 79/315/78 90/299/89 89/301/90
f 79/79/78 80/312/80 91/296/91 90/298/89
f 80/80/80 81/309/81 92/293/92 91/295/91
f 81/81/81 82/306/82 93/290/93 92/292/92
f 82/82/82 83/303/83 94/287/94 93/289/93
usemtl lambert5SG
f 83/83/83 84/381/84 95/366/95 94/368/94
f 84/84/84 85/378/85 96/363/96 95/365/95
f 85/85/85 86/375/86 97/360/97 96/362/96
f 86/86/86 87/372/87 98/357/98 97/359/97
f 87/87/87 88/369/88 99/99/99 98/356/98
usemtl lambert6SG
f 89/89/90 90/300/89 101/284/100 100/286/101
f 90/90/89 91/297/91 102/281/102 101/283/100
f 91/91/91 92/294/92 103/278/103 102/280/102
f 92/92/92 93/291/93 104/275/104 103/277/103
f 93/93/93 94/288/94 105/272/105 104/274/104
usemtl lambert5SG
f 94/94/94 95/367/95 106/352/106 105/354/105
f 95/95/95 96/364/96 107/349/107 106/351/106
f 96/96/96 97/361/97 108/346/108 107/348/107
f 97/97/97 98/358/98 109/343/109 108/345/108
f 98/98/98 99/355/99 110/110/110 109/342/109
usemtl lambert6SG
f 100/100/101 101/285/100 112/271/111 111/111/112
f 101/101/100 102/282/102 113/270/113 112/112/111
f 102/102/102 103/279/103 114/269/114 113/113/113
f 103/103/103 104/276/104 115/267/115 114/114/114
f 104/104/104 105/273/105 116/268/116 115/115/115
usemtl lambert5SG
f 105/105/105 106/353/106 117/340/117 116/116/116
f 106/106/106 107/350/107 118/339/118 117/117/117
f 107/107/107 108/347/108 119/338/119 118/118/118
f 108/108/108 109/344/109 120/337/120 119/119/119
f 109/109/109 110/341/110 121/121/121 120/120/120
